<?xml version="1.0" encoding="UTF-8"?>
<svg id="Layer_1" data-name="Layer 1" xmlns="http://www.w3.org/2000/svg" xmlns:xlink="http://www.w3.org/1999/xlink" viewBox="0 0 358.5264 252.2512">
  <defs>
    <linearGradient id="linear-gradient" x1="172.189" y1="51.4548" x2="188.3537" y2="94.5" gradientUnits="userSpaceOnUse">
      <stop offset="0" stop-color="#de37d6"/>
      <stop offset="1" stop-color="red"/>
    </linearGradient>
    <linearGradient id="linear-gradient-2" x1="147.6811" y1="87.5563" x2="188.5468" y2="107.1718" gradientUnits="userSpaceOnUse">
      <stop offset="0" stop-color="#de37d6"/>
      <stop offset="1" stop-color="#00bfff"/>
    </linearGradient>
  </defs>
  <a xlink:href="67.5313725490196">
    <path id="logoMark" d="m191.9878,107.0122s.0142-.1747.0354-.4758c-.1458.0021-.3108.0044-.4939.0069.2012.2019.3662.3691.4585.4689Z" style="fill: #ab2071;"/>
  </a>
  <a xlink:href="adient">
    <path id="logoMark-2" data-name="logoMark" d="m191.6704,105.4012c.1484.1602.282.3055.3994.434.3643-5.7754,1.5518-31.9301-5.1714-52.248-7.6011-22.9716-26.082-14.1423-24.2964,6.6436.1533,1.7841.4939,3.5922.9695,5.4072,2.2698.8151,4.7881,2.4951,7.4312,5.2789,11.1104,11.7018,18.7808,29.7709,20.6677,34.4844Z" style="fill: url(#linear-gradient);"/>
  </a>
  <a xlink:href="11.4">
    <path id="logoMark-3" data-name="logoMark" d="m168.1866,86.8445c4.6777,2.272,9.2195,5.5269,13.0986,8.7377-6.8303-7.9954-14.8721-19.1011-17.7136-29.9443-8.7781-3.1525-13.7812,6.8383-7.3589,17.9103.5071.8743,1.0845,1.7261,1.7212,2.5555,2.0579-1.4341,5.5461-1.5453,10.2527.7408Z" style="fill: #ff0;"/>
  </a>
  <a xlink:href="20.2058823529412">
    <path id="logoMark-4" data-name="logoMark" d="m192.1272,106.5686s-.0083-.0217-.0127-.0334c-.0222.0003-.0493.0007-.0725.001.0259.01.0645.024.0852.0324Z" style="fill: #fad135;"/>
  </a>
  <a xlink:href="42.3007843137255">
    <path id="logoMark-5" data-name="logoMark" d="m191.6704,105.4012c-1.887-4.7135-9.5574-22.7825-20.6677-34.4844-2.6431-2.7838-5.1614-4.4637-7.4312-5.2789,2.8416,10.8431,10.8833,21.9489,17.7136,29.9443,4.8481,4.0125,8.6528,7.949,10.3853,9.819Z" style="fill: #f37438;"/>
  </a>
  <a xlink:href="49.0650980392157">
    <path id="logoMark-6" data-name="logoMark" d="m192.0232,106.5364c.0061,0,.0127-.0002.0188-.0002-.0056-.0021-.0127-.0048-.0183-.007-.0002.0023-.0002.0049-.0005.0072Z" style="fill: #4ea650;"/>
  </a>
  <a xlink:href="49.0650980392157">
    <path id="logoMark-7" data-name="logoMark" d="m192.6956,106.5317s-.2219-.2539-.6257-.6965c-.012.1866-.0227.3546-.0325.4977.0425.1102.0654.171.0771.2021.271-.0038.4717-.006.5811-.0034Z" style="fill: #4ea650;"/>
  </a>
  <a xlink:href="adient">
    <path id="logoMark-8" data-name="logoMark" d="m191.2239,106.2373c-4.7021-1.687-24.5752-8.7811-33.29-20.1336-3.5166,2.4505-2.8481,8.7719,3.1169,13.6553,8.4331,6.9037,25.6875,6.8491,30.4785,6.7843-.0923-.0927-.1919-.1927-.3054-.306Z" style="fill: url(#linear-gradient-2);"/>
  </a>
  <a xlink:href="49.0650980392157">
    <path id="logoMark-9" data-name="logoMark" d="m191.2239,106.2373c.1135.1132.2131.2133.3054.306.1831-.0025.3481-.0048.4939-.0069.0002-.0023.0002-.0049.0005-.0072-.1702-.0652-.4397-.1627-.7998-.2919Z" style="fill: #4ea650;"/>
  </a>
  <a xlink:href="49.0650980392157">
    <path id="logoMark-10" data-name="logoMark" d="m192.0374,106.333c.0098-.1432.0205-.3111.0325-.4977-.1174-.1285-.251-.2738-.3994-.434.167.4176.2922.7377.3669.9318Z" style="fill: #4ea650;"/>
  </a>
  <a xlink:href="49.0650980392157">
    <path id="logoMark-11" data-name="logoMark" d="m192.0237,106.5292c.0056.0022.0127.0048.0183.007.0232-.0004.0503-.0007.0725-.001-.0117-.0311-.0347-.0919-.0771-.2021-.0049.0724-.0095.1353-.0137.1962Z" style="fill: #4ea650;"/>
  </a>
  <a xlink:href="32.983137254902">
    <path id="logoMark-12" data-name="logoMark" d="m191.6705,105.4012c-1.7324-1.8699-5.5371-5.8065-10.3853-9.819-3.8792-3.2108-8.4209-6.4657-13.0986-8.7377-4.7065-2.2861-8.1948-2.1749-10.2527-.7408,8.7148,11.3525,28.5879,18.4466,33.29,20.1336.3601.1292.6296.2267.7998.2919.0042-.0609.0088-.1238.0137-.1962-.0747-.194-.2-.5142-.3669-.9318Z" style="fill: #45f248;"/>
  </a>
  <path id="fullLogo" d="m53.9163,162.7842l.4608,4.0786-12.8381,6.2613-.3932-3.4688,9.7238-4.4606-10.4802-2.1902-.3894-3.4487,13.9163,3.2283Zm3.0317-22.3209c.2079,1.1833.1027,2.3724-.3156,3.5671-.4196,1.1946-1.0807,2.1914-1.9849,2.9929-.9054.8002-1.9586,1.3187-3.1582,1.5541-1.2021.2367-2.4231.1359-3.6653-.2999-1.2435-.4364-2.2553-1.1201-3.0392-2.0518-.7839-.9329-1.2798-1.9949-1.4839-3.1845-.2067-1.1896-.1002-2.3824.3181-3.5764.4195-1.1947,1.0807-2.1921,1.9861-2.9929.9054-.7996,1.9523-1.3136,3.1419-1.539,1.1909-.2255,2.4069-.1208,3.6491.3143,1.2435.4371,2.2615,1.1183,3.053,2.0475.7914.9279,1.2924,1.9848,1.499,3.1688Zm-3.2997-.2135c-.4609-.8459-1.2473-1.4639-2.3555-1.8533-1.1233-.3945-2.1251-.4033-3.0092-.0295-.8829.3745-1.5027,1.0682-1.8584,2.0819-.3606,1.0256-.3143,1.9592.134,2.8013.4508.8422,1.2435,1.4626,2.3755,1.8596,1.122.3945,2.1263.4039,3.0092.0294.8828-.3738,1.504-1.0738,1.8646-2.0994.3544-1.0137.3018-1.9435-.1603-2.79Zm-.0163-18.5397l10.2873,8.6844,2.1138-2.5058-10.2886-8.6844-2.1125,2.5057Zm24.5079-3.2603c1.3963-.7776,2.3881-1.8095,2.9753-3.0949.5836-1.2849.6913-2.6586.3156-4.118l-3.1495,1.755c.0401.6224-.0839,1.1821-.3707,1.678-.2867.4971-.7037.8979-1.251,1.2021-.8816.4921-1.7682.5836-2.6573.2742-.8904-.3093-1.6217-.978-2.194-2.0048-.5723-1.0281-.7551-2.0011-.5522-2.9209.2041-.9185.7488-1.6248,1.6317-2.1157.546-.3055,1.107-.4495,1.6805-.432.5723.0175,1.1145.206,1.6229.566l3.1481-1.7551c-1.0444-1.0863-2.2678-1.72-3.6729-1.9041-1.4063-.1829-2.8051.1152-4.2026.8929-1.1396.6336-2.0161,1.4564-2.631,2.4657-.6161,1.0106-.9229,2.1088-.9179,3.2997.0062,1.1896.3318,2.3668.9767,3.527.6487,1.1627,1.4764,2.0543,2.482,2.6792,1.0081.6249,2.1025.9411,3.2847.9479,1.1821.0076,2.343-.3068,3.4813-.9423Zm22.2614-6.2118l-.2692-2.6135-4.9414.5109-.3043-2.9378,4.3691-.4521-.2605-2.5176-4.3691.452-.2792-2.7092,4.9402-.5109-.2705-2.6141-8.2023.849,1.3849,13.3923,8.2023-.849Zm11.1764.9767c.6625.5215,1.4664.9173,2.4131,1.1871.9718.2786,1.8646.3406,2.6799.1879.8152-.1528,1.4952-.4759,2.0424-.9724.5472-.4946.9267-1.1114,1.1383-1.8489.2204-.7745.2104-1.462-.03-2.0631-.2417-.5998-.5848-1.1039-1.0344-1.5115-.4484-.4076-1.0507-.8722-1.8058-1.3944-.7576-.5084-1.3011-.936-1.6267-1.2823-.3293-.3456-.4307-.7275-.3118-1.1458.1089-.382.3093-.6399.6011-.7764.2917-.1352.6261-.1496,1.0093-.04.442.1265.7701.3494.9843.67.2129.3206.273.6937.1803,1.1182l3.4099.9749c.2855-1.2347.0901-2.3186-.5861-3.2502-.6787-.9311-1.7306-1.6004-3.1569-2.008-1.4013-.4008-2.636-.3839-3.7029.0482-1.0694.4333-1.7745,1.2523-2.1188,2.4569-.2316.8115-.2291,1.524.0075,2.1364.238.6136.5836,1.1245,1.0394,1.534.4534.4083,1.062.8616,1.8246,1.3594.5272.3362.9304.618,1.2059.8428.2729.2247.4883.4727.6449.7432.154.2699.1878.5648.0964.8848-.1102.3813-.3306.6405-.6625.7783-.3306.1384-.7313.1403-1.1984.0063-.4545-.1302-.7877-.3619-.998-.6938-.2116-.3331-.2729-.7463-.1853-1.2397l-3.3548-.9592c-.2179.8553-.1891,1.6486.0876,2.3787.2767.7313.7463,1.3569,1.4075,1.879Zm-8.3535,63.9053c-3.4553,8.4552-6.9456,13.6516-10.4665,15.5925-.5784.2391-1.0361.3991-1.372.4803-3.1976.5744-5.4307.3732-6.6993-.6065-.9117-.7698-1.7654-1.8994-2.5598-3.3903-.5008,2.3985-.8871,4.6195-1.1604,6.665-4.0501.5825-6.4077-.1337-7.0712-2.1505-.1844-.3696-.2023-.9903-.1331-1.7479,1.0281-5.5935,2.8564-13.0117,5.4858-22.2562,3.5618-12.3145,7.7278-25.4453,12.2141-37.7279.2715-.6413.772-1.0064,1.4055-1.1444,1.6208-.3506,4.1085.7772,5.8356,2.5235-2.0088,5.5841-4.0461,11.511-6.106,17.7629-1.4391,4.4713-2.7212,8.5662-3.8432,12.2796,3.1319-7.0915,6.0148-11.8456,8.6484-14.264,1.5027-1.549,3.7396-1.2983,6.7105.7549,1.9828,1.3995,3.1643,2.9448,3.5489,4.6328.7825,5.8466-.6962,13.3793-4.4374,22.5961Zm-2.3436-22.5884c-.4011-.7942-.8524-1.1297-1.3554-1.0085-2.1718.6233-5.7991,6.2509-10.8832,16.8802-1.1862,2.366-2.2841,4.7573-3.2969,7.1808-.8926,6.2519-.4843,9.9623,1.2256,11.1333,1.4266.8417,3.3887-.8695,5.8815-5.1339,3.4576-6.1799,5.9459-12.7677,7.4661-19.7656.1157-.7203.3044-1.6068.5662-2.6601.5259-3.195.657-5.4048.3961-6.6262Zm47.0408.9437c.4987.9685.6912,1.8126.5742,2.5342-.6271,1.6851-1.3452,3.3431-2.0825,5.0126-.4308.9759-.8503,2.005-1.3459,3.0201-3.3986,6.955-7.4944,10.7747-13.6283,15.381-2.3539,8.586-4.3463,14.6133-5.978,18.0615-2.22,4.495-4.7229,8.0684-7.5084,10.7216-2.3188,2.0446-4.8677,1.6213-7.6447-1.2689-2.2317-2.4299-3.2748-4.947-3.1298-7.5548.0931-1.0127.3624-1.9686.8065-2.8676,1.3355-2.7518,3.5603-5.7177,6.6773-8.8981,2.7783-2.8248,6.0012-5.6165,9.1841-8.1473.1406-.1203.2858-.2407.4336-.3615,1.2441-4.9333,2.6498-10.1755,4.222-15.7413-3.6212,7.4069-7.2308,13.821-10.8318,19.2437-.6864,1.057-1.5192,1.9011-2.495,2.5325-.8991.5148-1.8524.8948-2.857,1.1376-2.0182.3884-3.5912-.6663-4.7187-3.1648-.5217-1.2582-.739-2.4435-.6506-3.5524,1.522-11.5223,5.8481-24.1486,8.947-35.7106.8315-2.3376,2.5508-2.6614,4.4383-2.2595,1.1402.4175,2.219,1.1467,3.2346,2.1857-4.2547,13.6964-7.0316,23.8172-8.3275,30.3652-.5336,3.0975-.3893,4.4483.433,4.0504.4051-.2949.8011-.6871,1.191-1.1782,4.2635-5.6813,9.9375-16.4049,17.0218-32.1696.4768-1.5986.8882-2.9363,1.2328-4.0096.3823-.5859.8212-.9902,1.3168-1.2089,1.4247-.3448,3.3661.5233,5.8265,2.6002-3.3354,11.196-6.0716,20.7134-8.2092,28.554-.082.3457-.1609.6801-.2401,1.0152,3.3047-2.8795,6.5794-6.495,8.8973-11.3597.2167-.4537.4377-.9314.6641-1.4228.8872-1.9294,1.8652-4.14,2.9287-6.6322.0729-.1669.1603-.2688.2639-.3052.313-.1121.7632.3548,1.3543,1.3974Zm-25.8648,32.8091c-3.5326,2.9317-6.2782,6.1184-8.2366,9.5614-.6666,1.3482-1.1761,2.5115-1.5282,3.4874-.5309,2.0085-.4095,3.0656.3679,3.1756.509-.0236,1.0813-.3611,1.7153-1.0075.6263-.7468,1.2827-1.6475,1.9708-2.7046,1.9735-3.248,3.8766-7.4188,5.7109-12.5123Zm196.3526-71.3602c-.6271,1.6851-1.3452,3.3438-2.0822,5.0119-.4323.9774-.8506,2.0057-1.3461,3.0201-3.3971,6.9556-7.4929,10.7753-13.6296,15.3818-2.3524,8.5867-4.345,14.6133-5.9764,18.0615-2.2203,4.495-4.7229,8.0684-7.5085,10.7216-2.3204,2.0446-4.8675,1.6213-7.6447-1.2682-2.2318-2.4307-3.275-4.9484-3.1313-7.5554.0945-1.0128.3638-1.9687.8093-2.8671,1.334-2.7524,3.559-5.7183,6.6758-8.8986,2.7785-2.8248,6.0015-5.6166,9.1829-8.1473h.0012c.1406-.1211.2843-.2408.4324-.3615,1.2457-4.9334,2.651-10.1755,4.2235-15.7407-3.6215,7.4062-7.2311,13.8203-10.832,19.243-.6881,1.0571-1.5193,1.901-2.4951,2.5325-.8991.5154-1.8521.8947-2.857,1.1377-2.018.3883-3.5909-.6664-4.7185-3.1649-.5216-1.2582-.7392-2.4442-.6522-3.5524.1049-.7943.2527-1.6049.3832-2.4088-1.463,2.592-3.0662,5.0977-4.8647,7.4991-.4658.5708-.9335,1.1033-1.4009,1.5967-.6575.7505-1.3406,1.4653-2.0484,2.1284-6.2447,5.2006-13.9426.1068-15.7346-4.9932-.2498-.7432-.4045-1.5232-.5187-2.3175-3.9039,7.5715-6.9185,12.2755-9.0416,14.0985-1.4348,1.337-3.4556,1.1332-6.0606-.6127-1.8005-1.2465-2.7597-2.6472-2.8762-4.2017-.0034-1.1871.2092-2.8713.6421-5.0536-2.98,6.8546-5.7482,11.434-8.3034,13.7341-1.5059,1.5507-3.7411,1.3006-6.7124-.7527-2.0656-1.3795-3.2524-2.9734-3.5586-4.7797-.1196-.8859-.1669-1.8287-.1797-2.7991-2.7306,5.2034-5.3907,9.2067-7.9772,11.9686-.5557.5303-1.0363.9411-1.4398,1.2358-1.6129,1.1802-3.4243.8777-5.4326-.9071-2.1216-2.1548-3.5893-4.4662-3.2017-7.2277,2.2644-9.2335,5.6696-17.8322,8.4521-26.4681-2.7189,1.5762-6.7415,3.5347-9.6076,4.3071-2.0709,5.1567-5.3485,14.7578-6.4317,17.5978-.3447,1.0705-.7736,2.1617-1.2851,3.2735-.4803.4128-1.0244-.047-1.6364-1.3828-.3165-.8113-.4662-1.664-.4483-2.5579,1.5143-3.6251,4.7026-12.9619,6.194-16.8781.0542-.1406.0939-.2498.1437-.3861-1.2338-1.6354-2.3132-5.1847-2.657-6.6331-.1284-.5609.145-1.4666.8165-2.7164.3835-.6832,1.6342-2.0289,2.7036-2.3047.247-.0638.4846-.0698.6981-.0003.958.2638,2.2647,1.8184,3.5527,3.0865,3.7869-.975,9.4201-4.0668,11.0045-4.1071,1.0172-.0261,2.2237.6962,3.7051,3.3998,1.278,2.2581,1.7028,3.9356,1.2739,5.0247-.4906,1.4029-1.0879,3.0781-1.791,5.0282-3.0349,9.4245-4.7752,14.629-5.9438,19.4554-.4105,2.4705-.3604,3.6921.1487,3.6671.4956-.2179,1.3568-1.2173,2.5837-2.9946,1.596-2.5589,3.3626-5.6523,5.3046-9.2825,1.0115-2.0513,2.2728-4.7702,3.7587-8.0908.6055-1.8857,1.302-3.8438,2.1279-5.9038,3.4628-8.3583,6.9554-13.5074,10.478-15.447,2.4547-1.3848,4.9204-1.4872,7.3987-.3049.2667.1337.4905.2781.6727.4296,1.0864.8268,2.132,2.2557,3.1391,4.2887.1384-.4292,1.0125-2.9649,2.6241-7.6092,1.3355-1.5118,3.4352-.8307,6.2954,2.0384.1897.2504.3344.4642.4326.6371-5.0585,15.4738-7.6187,23.3654-7.6816,23.6786-.6215,1.9317-1.087,3.6758-1.3953,5.2339-.9789,3.9979-.9038,5.5637.2254,4.6951,1.122-.9633,2.8527-3.4597,5.1931-7.4885,1.5913-2.6608,3.8-7.3006,6.6279-13.9223.0169-.0389.0376-.0622.0564-.0941,2.0189-4.903,4.772-9.5952,7.0004-13.1245,3.3923-4.6709,6.2488-7.4349,8.5682-8.2922,2.4247-.5861,4.7627-.0654,7.0136,1.5635.4552.3835.8259.787,1.1123,1.2112.8863,1.5628,2.1523,5.8788-.6715,10.8605-1.3437,2.3634-5.582.7506-6.0741-.5225.9298-1.3388,2.2707-3.6041,3.0671-5.5538.8099-2.0224.5638-4.8494-1.8865-2.4018-1.2802,1.0998-2.5674,2.6462-3.8651,4.6392-3.1016,4.9053-6.6661,11.5435-8.67,18.1238-3.7871,12.4269.9179,13.4408,6.9003,8.4602,3.7556-3.1816,6.9926-8.2418,9.7438-13.4966.5782-1.223,1.1962-2.5665,1.8564-4.0297.52-1.1542,1.0657-2.3818,1.6364-3.6849.0028-.0062.0072-.0084.0103-.0144,1.591-5.7269,3.3307-11.4462,4.7993-16.9261.8315-2.3383,2.5508-2.6613,4.4367-2.2593,1.1402.4174,2.2206,1.1467,3.2362,2.1855-4.2546,13.6964-7.0299,23.8172-8.3276,30.3652-.5334,3.0975-.3891,4.4484.4346,4.051.4035-.2947.7996-.6876,1.1896-1.1788,4.2636-5.6813,9.936-16.4047,17.0217-32.1695.4755-1.5986.8869-2.9363,1.2328-4.0096.3825-.5859.8199-.9902,1.3167-1.2089,1.4235-.3447,3.3661.5234,5.8268,2.6003-3.3354,11.196-6.0719,20.7133-8.2111,28.5541-.0801.3456-.1594.6793-.2386,1.0151,3.3035-2.8794,6.5794-6.4949,8.8973-11.3596.2166-.4537.4361-.9307.6643-1.4228.8872-1.9294,1.8633-4.14,2.9271-6.6321.0742-.1662.1616-.2689.2652-.3053.3115-.1121.7635.3549,1.3527,1.3975.5003.9684.6928,1.8124.5757,2.5342Zm-78.9114,8.0958c-.4095-3.1656-1.0482-4.8427-1.9141-5.0289-.3434-.0162-.6403.0063-.8916.0668-1.2485.4009-2.822,2.1671-4.7189,5.2977-2.9985,5.4752-5.2567,11.1658-6.7725,17.0735-1.7882,7.9537-2.0969,12.3339-.9276,13.1401,1.6736.6821,4.9924-3.9288,9.9611-13.8392,1.6376-3.1654,3.2562-6.5765,4.8578-10.2288.3106-2.649.4471-4.808.4058-6.4812Zm52.4709,22.1792c-3.5311,2.9316-6.2766,6.1183-8.2349,9.562-.6668,1.3481-1.1762,2.5101-1.5284,3.4867-.5309,2.0085-.4095,3.0655.3663,3.1757.5109-.0244,1.0832-.3605,1.7156-1.0076.6277-.7475,1.2842-1.6475,1.972-2.7046,1.9736-3.2488,3.8766-7.4188,5.7094-12.5122Zm-92.3547-37.9503c3.3357-1.5746,6.1022-3.3495,8.7066-5.6952.793-.7144,1.4808-1.5577,1.9545-2.5142.0031-.0062.0063-.0123.0094-.0185,1.688-3.4355,1.5785-7.1127.9104-10.1828-1.053,4.2446-4.1154,6.9963-7.9045,8.9346,1.8318-3.6761,3.5809-8.3533,4.0812-13.4583.615-.337,1.04-.9794,1.0482-1.7304.012-1.1075-.8762-2.0154-1.9837-2.0274-1.1075-.0121-2.0153.8762-2.0273,1.9837-.0074.6753.3226,1.2734.8304,1.6424-.6013,5.8979-3.0267,11.2682-5.1492,14.9948-.728.2756-1.468.5318-2.213.7712-.862.2769-1.7289.5381-2.5979.7922,2.2751-3.9274,4.9232-9.7187,5.5583-16.2004.6148-.337,1.0396-.9792,1.0477-1.7302.0121-1.1075-.8762-2.0153-1.9837-2.0273-1.1074-.0121-2.0153.8762-2.0273,1.9837-.0074.6755.3228,1.2737.8308,1.6427-.7327,7.1851-4.1693,13.5912-6.469,17.1821-1.1215.3016-2.2449.5964-3.3693.8837-7.5308,1.9246-15.3317,1.983-23.3192,4.4506-.5472.1637-1.1164.3824-1.7075.6564-3.5955,1.6606-6.9009,4.3389-8.8848,7.6535-2.2128,3.698-2.5089,8.6793-1.4545,12.6468,1.1177,4.2088,6.6658,11.8516,12.0167,7.4489,1.8815-1.6345,3.0289-3.8348,3.4424-6.5978-1.0958-.0352-6.0315,2.7302-9.9454-2.7529-1.8158-2.9434-1.1984-6.7478.5297-8.6807,1.6342-1.8284,5.3801-2.5921,11.2209-3.3339,1.6501-.2596,6.2669-.9453,11.5082-1.9542-6.9006,20.3444-13.2445,40.6403-17.9689,62.4455-.037,2.5075,2.7935,3.3342,7.0596,2.433.3666-1.7017.7448-3.4293,1.0757-4.8864,4.6979-20.7004,12.5242-42.1687,19.3796-62.1212,3.0161-.7949,5.772-1.6791,7.7947-2.634Z"/>
</svg>