<?xml version="1.0" encoding="UTF-8"?>
<svg id="Layer_1" data-name="Layer 1" xmlns="http://www.w3.org/2000/svg" xmlns:xlink="http://www.w3.org/1999/xlink" viewBox="0 0 139.059 219.7917">
  <defs>
    <linearGradient id="linear-gradient" x1="59.2754" y1="51.4548" x2="75.4401" y2="94.5" gradientUnits="userSpaceOnUse">
      <stop offset="0" stop-color="#de37d6"/>
      <stop offset="1" stop-color="red"/>
    </linearGradient>
    <linearGradient id="linear-gradient-2" x1="34.7675" y1="87.5563" x2="75.6332" y2="107.1718" gradientUnits="userSpaceOnUse">
      <stop offset="0" stop-color="#de37d6"/>
      <stop offset="1" stop-color="#00bfff"/>
    </linearGradient>
  </defs>
  <a xlink:href="67.5313725490196">
    <path id="logoMark" d="m79.0742,107.0122s.0142-.1747.0354-.4758c-.1458.0021-.3108.0044-.4939.0069.2012.2019.3662.3691.4585.4689Z" style="fill: #fff;"/>
  </a>
  <a xlink:href="adient">
    <path id="logoMark-2" data-name="logoMark" d="m78.7568,105.4012c.1484.1602.282.3055.3994.434.3643-5.7754,1.5518-31.9301-5.1714-52.248-7.6011-22.9716-26.082-14.1423-24.2964,6.6436.1533,1.7841.4939,3.5922.9695,5.4072,2.2698.8151,4.7881,2.4951,7.4312,5.2789,11.1104,11.7018,18.7808,29.7709,20.6677,34.4844Z" style="fill: url(#linear-gradient);"/>
  </a>
  <a xlink:href="11.4">
    <path id="logoMark-3" data-name="logoMark" d="m55.2729,86.8445c4.6777,2.272,9.2195,5.5269,13.0986,8.7377-6.8303-7.9954-14.8721-19.1011-17.7136-29.9443-8.7781-3.1525-13.7812,6.8383-7.3589,17.9103.5071.8743,1.0845,1.7261,1.7212,2.5555,2.0579-1.4341,5.5461-1.5453,10.2527.7408Z" style="fill: #ff0;"/>
  </a>
  <a xlink:href="20.2058823529412">
    <path id="logoMark-4" data-name="logoMark" d="m79.2136,106.5686s-.0083-.0217-.0127-.0334c-.0222.0003-.0493.0007-.0725.001.0259.01.0645.024.0852.0324Z" style="fill: #fad135;"/>
  </a>
  <a xlink:href="42.3007843137255">
    <path id="logoMark-5" data-name="logoMark" d="m78.7568,105.4012c-1.887-4.7135-9.5574-22.7825-20.6677-34.4844-2.6431-2.7838-5.1614-4.4637-7.4312-5.2789,2.8416,10.8431,10.8833,21.9489,17.7136,29.9443,4.8481,4.0125,8.6528,7.949,10.3853,9.819Z" style="fill: #f37438;"/>
  </a>
  <a xlink:href="49.0650980392157">
    <path id="logoMark-6" data-name="logoMark" d="m79.1096,106.5364c.0061,0,.0127-.0002.0188-.0002-.0056-.0021-.0127-.0048-.0183-.007-.0002.0023-.0002.0049-.0005.0072Z" style="fill: #4ea650;"/>
  </a>
  <a xlink:href="49.0650980392157">
    <path id="logoMark-7" data-name="logoMark" d="m79.7819,106.5317s-.2219-.2539-.6257-.6965c-.012.1866-.0227.3546-.0325.4977.0425.1102.0654.171.0771.2021.271-.0038.4717-.006.5811-.0034Z" style="fill: #4ea650;"/>
  </a>
  <a xlink:href="adient">
    <path id="logoMark-8" data-name="logoMark" d="m78.3103,106.2373c-4.7021-1.687-24.5752-8.7811-33.29-20.1336-3.5166,2.4505-2.8481,8.7719,3.1169,13.6553,8.4331,6.9037,25.6875,6.8491,30.4785,6.7843-.0923-.0927-.1919-.1927-.3054-.306Z" style="fill: url(#linear-gradient-2);"/>
  </a>
  <a xlink:href="49.0650980392157">
    <path id="logoMark-9" data-name="logoMark" d="m78.3103,106.2373c.1135.1132.2131.2133.3054.306.1831-.0025.3481-.0048.4939-.0069.0002-.0023.0002-.0049.0005-.0072-.1702-.0652-.4397-.1627-.7998-.2919Z" style="fill: #4ea650;"/>
  </a>
  <a xlink:href="49.0650980392157">
    <path id="logoMark-10" data-name="logoMark" d="m79.1237,106.333c.0098-.1432.0205-.3111.0325-.4977-.1174-.1285-.251-.2738-.3994-.434.167.4176.2922.7377.3669.9318Z" style="fill: #4ea650;"/>
  </a>
  <a xlink:href="49.0650980392157">
    <path id="logoMark-11" data-name="logoMark" d="m79.1101,106.5292c.0056.0022.0127.0048.0183.007.0232-.0004.0503-.0007.0725-.001-.0117-.0311-.0347-.0919-.0771-.2021-.0049.0724-.0095.1353-.0137.1962Z" style="fill: #4ea650;"/>
  </a>
  <a xlink:href="32.983137254902">
    <path id="logoMark-12" data-name="logoMark" d="m78.7568,105.4012c-1.7324-1.8699-5.5371-5.8065-10.3853-9.819-3.8792-3.2108-8.4209-6.4657-13.0986-8.7377-4.7065-2.2861-8.1948-2.1749-10.2527-.7408,8.7148,11.3525,28.5879,18.4466,33.29,20.1336.3601.1292.6296.2267.7998.2919.0042-.0609.0088-.1238.0137-.1962-.0747-.194-.2-.5142-.3669-.9318Z" style="fill: #45f248;"/>
  </a>
  <a xlink:href="100">
    <path id="logoMark-13" data-name="logoMark" d="m86.7005,109.249c3.3357-1.5746,6.1022-3.3495,8.7066-5.6952.793-.7144,1.4808-1.5577,1.9545-2.5142.0031-.0062.0063-.0123.0094-.0185,1.688-3.4355,1.5785-7.1127.9104-10.1828-1.053,4.2446-4.1154,6.9963-7.9045,8.9346,1.8318-3.6761,3.5809-8.3533,4.0812-13.4583.615-.337,1.04-.9794,1.0482-1.7304.012-1.1075-.8762-2.0154-1.9837-2.0274-1.1075-.0121-2.0153.8762-2.0273,1.9837-.0074.6753.3226,1.2734.8304,1.6424-.6013,5.8979-3.0267,11.2682-5.1492,14.9948-.728.2756-1.468.5318-2.213.7712-.862.2769-1.7289.5381-2.5979.7922,2.2751-3.9274,4.9232-9.7187,5.5583-16.2004.6148-.337,1.0396-.9792,1.0477-1.7302.0121-1.1075-.8762-2.0153-1.9837-2.0273-1.1074-.0121-2.0153.8762-2.0273,1.9837-.0074.6755.3228,1.2737.8308,1.6427-.7327,7.1851-4.1693,13.5912-6.469,17.1821-1.1215.3016-2.2449.5964-3.3693.8837-7.5308,1.9246-15.3317,1.983-23.3192,4.4506-.5472.1637-1.1164.3824-1.7075.6564-3.5955,1.6606-6.9009,4.3389-8.8848,7.6535-2.2128,3.698-2.5089,8.6793-1.4545,12.6468,1.1177,4.2088,6.6658,11.8516,12.0167,7.4489,1.8815-1.6345,3.0289-3.8348,3.4424-6.5978-1.0958-.0352-6.0315,2.7302-9.9454-2.7529-1.8158-2.9434-1.1984-6.7478.5297-8.6807,1.6342-1.8284,5.3801-2.5921,11.2209-3.3339,1.6501-.2596,6.2669-.9453,11.5082-1.9542-6.9006,20.3444-13.2445,40.6403-17.9689,62.4455-.037,2.5075,2.7935,3.3342,7.0596,2.433.3666-1.7017.7448-3.4293,1.0757-4.8864,4.6979-20.7004,12.5242-42.1687,19.3796-62.1212,3.0161-.7949,5.772-1.6791,7.7947-2.634Z" style="fill: #fff;"/>
  </a>
</svg>